<mxfile host="app.diagrams.net" agent="Mozilla/5.0 (Windows NT 10.0; Win64; x64) AppleWebKit/537.36 (KHTML, like Gecko) Chrome/140.0.0.0 Safari/537.36" version="28.2.5">
  <diagram name="Trang-1" id="miG52PHDl-2SRu8vdzUr">
    <mxGraphModel dx="872" dy="473" grid="1" gridSize="10" guides="1" tooltips="1" connect="1" arrows="1" fold="1" page="1" pageScale="1" pageWidth="827" pageHeight="1169" math="0" shadow="0">
      <root>
        <mxCell id="0" />
        <mxCell id="1" parent="0" />
        <mxCell id="ugbZHux9izhhvxdXkmgB-7" style="edgeStyle=orthogonalEdgeStyle;rounded=0;orthogonalLoop=1;jettySize=auto;html=1;exitX=0.5;exitY=1;exitDx=0;exitDy=0;" edge="1" parent="1" source="ugbZHux9izhhvxdXkmgB-1" target="ugbZHux9izhhvxdXkmgB-2">
          <mxGeometry relative="1" as="geometry" />
        </mxCell>
        <mxCell id="ugbZHux9izhhvxdXkmgB-1" value="Start" style="ellipse;whiteSpace=wrap;html=1;" vertex="1" parent="1">
          <mxGeometry x="300" y="40" width="120" height="80" as="geometry" />
        </mxCell>
        <mxCell id="ugbZHux9izhhvxdXkmgB-8" style="edgeStyle=orthogonalEdgeStyle;rounded=0;orthogonalLoop=1;jettySize=auto;html=1;exitX=0.5;exitY=1;exitDx=0;exitDy=0;entryX=0.5;entryY=0;entryDx=0;entryDy=0;" edge="1" parent="1" source="ugbZHux9izhhvxdXkmgB-2" target="ugbZHux9izhhvxdXkmgB-3">
          <mxGeometry relative="1" as="geometry" />
        </mxCell>
        <mxCell id="ugbZHux9izhhvxdXkmgB-2" value="Nháº­p a,b" style="shape=parallelogram;perimeter=parallelogramPerimeter;whiteSpace=wrap;html=1;fixedSize=1;" vertex="1" parent="1">
          <mxGeometry x="300" y="160" width="120" height="60" as="geometry" />
        </mxCell>
        <mxCell id="ugbZHux9izhhvxdXkmgB-9" style="edgeStyle=orthogonalEdgeStyle;rounded=0;orthogonalLoop=1;jettySize=auto;html=1;exitX=0.5;exitY=1;exitDx=0;exitDy=0;" edge="1" parent="1" source="ugbZHux9izhhvxdXkmgB-3" target="ugbZHux9izhhvxdXkmgB-5">
          <mxGeometry relative="1" as="geometry" />
        </mxCell>
        <mxCell id="ugbZHux9izhhvxdXkmgB-10" style="edgeStyle=orthogonalEdgeStyle;rounded=0;orthogonalLoop=1;jettySize=auto;html=1;exitX=0.5;exitY=1;exitDx=0;exitDy=0;" edge="1" parent="1" source="ugbZHux9izhhvxdXkmgB-3" target="ugbZHux9izhhvxdXkmgB-6">
          <mxGeometry relative="1" as="geometry" />
        </mxCell>
        <mxCell id="ugbZHux9izhhvxdXkmgB-3" value="a &amp;lt; b?" style="rhombus;whiteSpace=wrap;html=1;" vertex="1" parent="1">
          <mxGeometry x="320" y="260" width="80" height="80" as="geometry" />
        </mxCell>
        <mxCell id="ugbZHux9izhhvxdXkmgB-12" style="edgeStyle=orthogonalEdgeStyle;rounded=0;orthogonalLoop=1;jettySize=auto;html=1;exitX=0.5;exitY=1;exitDx=0;exitDy=0;entryX=0.5;entryY=0;entryDx=0;entryDy=0;" edge="1" parent="1" source="ugbZHux9izhhvxdXkmgB-5" target="ugbZHux9izhhvxdXkmgB-11">
          <mxGeometry relative="1" as="geometry" />
        </mxCell>
        <mxCell id="ugbZHux9izhhvxdXkmgB-5" value="a" style="shape=parallelogram;perimeter=parallelogramPerimeter;whiteSpace=wrap;html=1;fixedSize=1;" vertex="1" parent="1">
          <mxGeometry x="160" y="380" width="120" height="60" as="geometry" />
        </mxCell>
        <mxCell id="ugbZHux9izhhvxdXkmgB-13" style="edgeStyle=orthogonalEdgeStyle;rounded=0;orthogonalLoop=1;jettySize=auto;html=1;exitX=0.5;exitY=1;exitDx=0;exitDy=0;entryX=0.5;entryY=0;entryDx=0;entryDy=0;" edge="1" parent="1" source="ugbZHux9izhhvxdXkmgB-6" target="ugbZHux9izhhvxdXkmgB-11">
          <mxGeometry relative="1" as="geometry" />
        </mxCell>
        <mxCell id="ugbZHux9izhhvxdXkmgB-6" value="b" style="shape=parallelogram;perimeter=parallelogramPerimeter;whiteSpace=wrap;html=1;fixedSize=1;" vertex="1" parent="1">
          <mxGeometry x="414" y="380" width="120" height="60" as="geometry" />
        </mxCell>
        <mxCell id="ugbZHux9izhhvxdXkmgB-11" value="End" style="ellipse;whiteSpace=wrap;html=1;" vertex="1" parent="1">
          <mxGeometry x="300" y="490" width="120" height="80" as="geometry" />
        </mxCell>
        <mxCell id="ugbZHux9izhhvxdXkmgB-14" value="False" style="text;html=1;align=center;verticalAlign=middle;whiteSpace=wrap;rounded=0;" vertex="1" parent="1">
          <mxGeometry x="380" y="330" width="60" height="30" as="geometry" />
        </mxCell>
        <mxCell id="ugbZHux9izhhvxdXkmgB-15" value="True" style="text;html=1;align=center;verticalAlign=middle;whiteSpace=wrap;rounded=0;" vertex="1" parent="1">
          <mxGeometry x="260" y="330" width="60" height="30" as="geometry" />
        </mxCell>
      </root>
    </mxGraphModel>
  </diagram>
</mxfile>
